PathFileType	4	(X/Y/Z)	Patient4_TMGait_0pt7_01_right_08.trc.trc
DataRate	CameraRate	NumFrames	NumMarkers	Units	OrigDataRate	OrigDataStartFrame	OrigNumFrames
85.889570552147	85.889570552147	6	33	mm	85.889570552147	18	       141
Frame#	Time	Sacral			L.Shoulder			Chest			R.Shoulder			Neck			R.ASIS			L.ASIS			R.Thigh.Superior			R.Thigh.Lateral			R.Thigh.Inferior			R.Patella			L.Thigh.Superior			L.Thigh.Lateral			L.Thigh.Inferior			L.Patella			L.Shank.Superior			L.Shank.Lateral			L.Shank.Inferior			R.Shank.Superior			R.Shank.Lateral			R.Shank.Inferior			R.Heel			R.Midfoot.Superior			R.Midfoot.Lateral			R.Toe			L.Heel			L.Midfoot.Lateral			L.Midfoot.Superior			L.Toe			L.Elbow			L.Wrist			R.Elbow			R.Wrist			
		X1	Y1	Z1	X2	Y2	Z2	X3	Y3	Z3	X4	Y4	Z4	X5	Y5	Z5	X6	Y6	Z6	X7	Y7	Z7	X8	Y8	Z8	X9	Y9	Z9	X10	Y10	Z10	X11	Y11	Z11	X12	Y12	Z12	X13	Y13	Z13	X14	Y14	Z14	X15	Y15	Z15	X16	Y16	Z16	X17	Y17	Z17	X18	Y18	Z18	X19	Y19	Z19	X20	Y20	Z20	X21	Y21	Z21	X22	Y22	Z22	X23	Y23	Z23	X24	Y24	Z24	X25	Y25	Z25	X26	Y26	Z26	X27	Y27	Z27	X28	Y28	Z28	X29	Y29	Z29	X30	Y30	Z30	X31	Y31	Z31	X32	Y32	Z32	X33	Y33	Z33	

18	8.837928571429	740.949847042727	999.428750357599	439.274989042286	934.901768828758	1414.333160554119	245.246747018012	1028.355291851821	1348.373484350973	414.133739087063	943.384645697961	1437.019942283755	580.116543037015	936.703328585868	1484.582518892681	397.542530396578	963.376054202108	936.810024152093	564.640894210786	958.728820157567	958.440002292892	288.503990099258	1040.573008490366	772.898881367989	545.640358799566	1003.707006469876	650.319486795052	624.429078127600	1096.904128549241	616.292642795337	548.034280898199	1135.603527156693	537.273361905595	566.922231446281	964.520572074126	734.938575532678	317.008174448008	849.068841393472	638.782644805822	254.784673918965	910.268820868269	546.351604584335	318.652285710281	896.055604569923	480.754107900455	328.317398337076	866.302768428459	413.423368375829	321.101755850662	767.914715743819	304.341511852463	273.816710128784	814.783248081612	191.958705257968	347.530238393082	1126.407576483440	447.990880920645	579.530148287040	1081.089384000115	334.400346595400	649.064119620516	1154.410428872828	250.145214969236	599.238373704412	1073.554691479100	55.943748988055	580.100853246323	1232.385909009436	141.951503363102	614.946530998097	1159.905023817405	59.876630716857	650.278600223656	1359.240422989591	114.035760482775	637.918148379282	680.718321693379	38.433025788935	395.165863259790	753.428178131267	34.824889657744	313.245262356787	836.904174012140	95.919610036514	338.135478167751	964.653083745222	45.927174747071	309.266338176907	1000.490377824510	1087.875635641751	101.868457557155	1225.429999522986	954.114407101583	104.741948287763	819.245087843447	1123.725885841414	719.750532171915	817.156101766844	862.092331158222	751.006776198728	
19	8.849571428571	742.102997255367	997.012434894434	441.118093424450	934.363843841118	1413.035065145267	247.330023176216	1028.251634013755	1346.990934886667	415.920846812751	943.252944644358	1435.151783868758	582.155300818139	936.460030803829	1482.910200580232	399.694297768439	964.674631987554	934.994911951485	566.285872809488	959.871494599656	957.053278398897	290.057469431182	1041.202584439469	769.675351507463	546.482773313207	1003.138040124599	646.770393397155	624.062196960707	1095.784623726571	612.617267170390	547.228715594915	1133.405456690948	533.944091088066	565.130635253049	964.105548415355	732.958502073948	319.063083157808	848.097221343917	637.760993679598	255.889838333309	907.574904325726	544.796315905649	320.598981528504	892.554576551249	479.142046921665	330.181197884949	862.240878094202	412.053358643114	322.519285446482	763.156693661631	303.983813042992	274.348125891609	808.049654823768	191.126745307058	348.381693233162	1125.080923183827	444.573015108608	577.585383410288	1080.595919215189	330.163018393993	646.103493224521	1154.713080365049	246.933450974432	595.800681840602	1075.384874697417	52.480186610710	575.679882591602	1233.803318345334	139.108067022981	610.398412873555	1161.879768034463	56.622079680272	645.620845227060	1360.896929903460	111.798398352968	632.888802145059	672.519754895822	38.304860810416	395.230227108797	745.211770502770	34.804296362627	313.328860045472	828.763400940352	95.728570465303	338.485312172822	956.463539494287	45.629630735481	309.318632066194	1000.717163822152	1087.659746856605	102.528054464298	1231.963721166299	966.008941463899	107.719579361880	814.269874500020	1124.566199942163	721.556304565042	800.760772356910	863.498793524618	753.777678722321	
20	8.861214285714	743.456960753065	994.447892087642	443.208599040189	933.775612410405	1411.636366594910	249.575492573318	1028.217077423743	1345.579195609405	417.832147360267	943.197065414793	1433.239901658963	584.350390031891	936.240428916402	1481.165349541202	401.998816373830	966.248274318461	933.032623261965	568.048894786069	961.147170152186	955.546411545492	291.754878463973	1042.430847450140	766.478290150856	547.414936377903	1002.935833114133	643.171569593076	623.490208189182	1095.233567471237	609.063898380622	546.455498392762	1131.564047749235	530.291155444986	563.397612892614	964.088229737420	730.917479790601	321.070600717757	847.507438833561	636.596065259355	257.125507800801	905.453139232215	543.119553350177	322.503920839618	889.619263808018	477.322140425786	332.060917663758	858.657154160284	410.489297199861	323.956806224625	758.652480674046	303.619504555520	274.975779248777	801.420789505289	190.201504881489	349.210484797174	1123.502458418225	440.688915625172	575.586004957693	1078.846339220132	325.757499954462	642.793132999274	1153.188481631694	243.095279766647	592.168432793158	1073.843403511362	49.415994701214	570.865665493947	1232.444681645167	135.170061262830	605.697025029815	1160.297800444759	53.174389946731	640.793417175344	1359.416697078403	107.307736483563	628.061610003244	664.323208252609	38.158200074249	395.267150532466	737.019806704828	34.758930609058	313.408688209848	820.655690996188	95.536633634642	338.824585676149	948.317513094983	45.246887955799	309.372538615614	1000.614889771118	1087.185126094355	103.468870876486	1237.333495730413	977.919091684143	111.070916140158	809.418700847841	1125.466090899732	723.472094499183	786.178773724057	865.313219090886	755.915445024033	
21	8.872857142857	744.987107351211	991.822727322378	445.527732673633	933.184254696500	1410.175980502333	251.977266109954	1028.276341986432	1344.177408297069	419.873948234918	943.244227168078	1431.339549931365	586.698712630590	936.074087411882	1479.400885921284	404.448478378124	968.079640538093	930.992047711522	569.913620551399	962.509055465912	953.957072476149	293.589437816145	1044.200745033536	763.344710558195	548.436205265182	1003.013501225133	639.594026584683	622.740049783925	1095.180012873918	605.680789190932	545.742011494423	1130.040656062216	526.408958692844	561.710920360879	964.430407670066	728.857289651228	322.968538254948	847.220505022766	635.322673838602	258.514518050893	903.891055410269	541.344940416034	324.331737143344	887.264446794196	475.303933455132	333.920875791235	855.534162325091	408.757709638530	325.405920044315	754.362775630340	303.291619548177	275.724540658503	794.889314976165	189.218263588186	350.005563615920	1121.728105253230	436.475748337290	573.566311260079	1076.083994392765	321.284860280679	639.305039163268	1150.140749079813	238.769081193920	588.477300179965	1069.386243951253	46.782130961052	565.982694016555	1228.745695576984	130.318022640083	600.977647579969	1155.683897722950	49.672725058142	636.054790982081	1355.305822384859	100.849668844389	623.480640173610	656.125609742818	38.025157325233	395.271599579140	728.855789740217	34.699381818345	313.485509008663	812.594654116715	95.354286794217	339.138865161234	940.223333825995	44.775999173711	309.421153671394	1000.176632106165	1086.457651766750	104.713221366921	1241.519543711735	989.700214191920	114.748198903327	804.768768857702	1126.427627804012	725.479297484902	773.382527148506	867.337099825116	757.531692854666	
22	8.884500000000	746.653193100234	989.240889841330	448.047749111516	932.644138480758	1408.712044092461	254.526575051640	1028.456477184967	1342.833849701881	422.049091562913	943.428745587143	1429.512742816696	589.195368112415	935.999205037392	1477.684279379588	407.036596346766	970.136819923806	928.967704691862	571.860564786143	963.901075136317	952.335899307421	295.552892961195	1046.416942243877	760.325959610732	549.544547979071	1003.292898175557	636.144709685351	621.887606599140	1095.521113715329	602.524652657194	545.122159888180	1128.783576232311	522.432062905498	560.080082294052	965.078490909894	726.832931145634	324.721725811285	847.160714602345	633.987594451706	260.079657730087	902.872364286214	539.510082776135	326.064597022243	885.508270362252	473.110490491261	335.727181201535	852.851296507590	406.901743505235	326.860561101085	750.254994771876	303.057334993456	276.614342023423	788.457955745601	188.229234211856	350.756525101509	1119.823764595867	432.122286783423	571.586200646056	1072.614197859974	316.899657656597	635.854749370462	1145.940929388716	234.170695284820	584.881847856050	1062.616260053094	44.620121987628	561.354034508915	1223.227774165272	124.861761431525	596.396566827143	1148.707628663918	46.304292459484	631.658563569429	1349.167332735267	92.932239801843	619.201048296828	647.926421446175	37.964928403229	395.239787628608	720.723184429427	34.649235415164	313.559344070561	804.600600300273	95.194551394068	339.411080098643	932.187189818315	44.221482037472	309.456672238411	999.383666322328	1085.494737637259	106.282769036778	1244.517907954584	1001.190216227484	118.702068417622	800.424300021012	1127.439168648792	727.553949729019	762.325981232868	869.406192923302	758.744279838105	
23	8.896142857143	748.400881964034	986.818677375393	450.734290013166	932.212773292564	1407.321282295355	257.210299265139	1028.783367948060	1341.605329880960	424.354931524607	943.787485302458	1427.827391475129	591.831379681302	936.059693663501	1476.095301768978	409.755477920063	972.370584874258	927.074057645830	573.871386674892	965.260797104316	950.746220549387	297.638021233667	1048.953025412965	757.496071186197	550.734292679939	1003.719107391445	632.963560068002	621.049001669141	1096.135112681144	599.665858400767	544.632399298989	1127.739280659409	518.532065661015	558.543992725460	965.972366517872	724.913301240270	326.327191172927	847.272741758450	632.645994130280	261.839855589098	902.391223750437	537.666592534603	327.700751408392	884.383423467275	470.778840554571	337.445794000211	850.598777038559	404.978797525798	328.313013036548	746.316249899274	302.987826267941	277.655719560483	782.147030711891	187.302895615163	351.450905642539	1117.861269655764	427.851607960100	569.728538206892	1068.769084482155	312.792645762547	632.681280588896	1140.982204849722	229.564324502001	581.543100583354	1054.210098784086	42.961782127057	557.260048133012	1216.434284936587	119.195065944665	592.125430926266	1140.099803566634	43.262292821012	627.824452525365	1341.629193767163	84.220539231882	615.301239984159	639.731655377449	38.070648265636	395.168740515887	712.626998842869	34.649222189486	313.628554956919	796.703216390175	95.073076575390	339.620807011584	924.212264759955	43.594855042797	309.471428081675	998.207287915131	1084.328171726926	108.198136686199	1246.340983179138	1012.214295380120	122.883472189575	796.511232438909	1128.475639587684	729.669066464976	752.964187862779	871.390705417292	759.666788558085	
